<svg width="48" height="48" viewBox="0 0 48 48" fill="none" xmlns="http://www.w3.org/2000/svg">
<rect width="48" height="48" rx="10" fill="#1C1D20"/>
<path d="M18.6484 31.1953C17.8216 31.1953 17.0794 31.0488 16.4219 30.7559C15.7643 30.4564 15.2435 30.0202 14.8594 29.4473C14.4753 28.8743 14.2832 28.1777 14.2832 27.3574V27.0742H16.4609V27.3574C16.4609 27.7546 16.5521 28.1029 16.7344 28.4023C16.9232 28.7018 17.1803 28.9329 17.5059 29.0957C17.8379 29.252 18.2188 29.3301 18.6484 29.3301C19.1107 29.3301 19.5046 29.2324 19.8301 29.0371C20.1556 28.8418 20.403 28.5553 20.5723 28.1777C20.7415 27.7936 20.8262 27.3249 20.8262 26.7715V16.4492H23.0039V26.7715C23.0039 27.7025 22.8249 28.5 22.4668 29.1641C22.1152 29.8216 21.6139 30.3262 20.9629 30.6777C20.3118 31.0228 19.5404 31.1953 18.6484 31.1953ZM27.7992 24.6328L27.9359 21.6348L25.4164 23.2656L24.6352 21.918L27.3109 20.5508L24.6352 19.1836L25.4164 17.8164L27.9359 19.4473L27.7992 16.4492H29.3422L29.2055 19.4473L31.725 17.8164L32.5063 19.1836L29.8305 20.5508L32.5063 21.918L31.725 23.2656L29.2055 21.6348L29.3422 24.6328H27.7992Z" fill="#FAFAFA"/>
</svg>
